<?xml version="1.0" encoding="UTF-8" standalone="no"?>
<!DOCTYPE svg PUBLIC "-//W3C//DTD SVG 1.1//EN" "http://www.w3.org/Graphics/SVG/1.1/DTD/svg11.dtd">
<svg width="100%" height="100%" viewBox="0 0 66 62" version="1.1" xmlns="http://www.w3.org/2000/svg" xmlns:xlink="http://www.w3.org/1999/xlink" xml:space="preserve" style="fill-rule:evenodd;clip-rule:evenodd;stroke-linecap:round;stroke-linejoin:round;stroke-miterlimit:1.5;">
    <g transform="matrix(1,0,0,1,-895,-320)">
        <g id="docstack">
            <g transform="matrix(1,0,0,1,-54.3264,-140.396)">
                <g transform="matrix(0.694573,0,0,0.77073,520.504,216.273)">
                    <path d="M656.663,328.826L656.663,373.512L693.096,373.512L693.096,336.375L684.031,336.375L684.031,328.826L656.663,328.826Z" style="fill:rgb(238,19,71);fill-opacity:0.298039;"/>
                    <path d="M684.24,326.672L684.448,326.697L684.652,326.738L684.852,326.794L685.045,326.867L685.231,326.954L685.408,327.055L685.574,327.17L685.728,327.297L685.869,327.436L685.997,327.586L686.109,327.745L686.206,327.913L686.286,328.087L686.349,328.267L686.394,328.451L686.422,328.638L686.431,328.826L686.431,334.212L693.096,334.212L693.305,334.221L693.512,334.245L693.717,334.286L693.916,334.343L694.11,334.415L694.295,334.502L694.472,334.603L694.638,334.718L694.792,334.846L694.934,334.985L695.061,335.134L695.174,335.294L695.27,335.461L695.351,335.635L695.413,335.815L695.459,335.999L695.486,336.186L695.495,336.375L695.495,373.512L695.486,373.7L695.459,373.887L695.413,374.072L695.351,374.252L695.27,374.426L695.174,374.593L695.061,374.752L694.934,374.902L694.792,375.041L694.638,375.168L694.472,375.283L694.295,375.385L694.11,375.472L693.916,375.544L693.717,375.601L693.512,375.642L693.305,375.666L693.096,375.674L656.663,375.674L656.454,375.666L656.246,375.642L656.042,375.601L655.842,375.544L655.649,375.472L655.463,375.385L655.287,375.283L655.121,375.168L654.966,375.041L654.825,374.902L654.698,374.752L654.585,374.593L654.488,374.426L654.408,374.252L654.345,374.072L654.3,373.887L654.273,373.7L654.264,373.512L654.264,328.826L654.273,328.638L654.3,328.451L654.345,328.267L654.408,328.087L654.488,327.913L654.585,327.745L654.698,327.586L654.825,327.436L654.966,327.297L655.121,327.17L655.287,327.055L655.463,326.954L655.649,326.867L655.842,326.794L656.042,326.738L656.246,326.697L656.454,326.672L656.663,326.664L684.031,326.664L684.24,326.672ZM656.663,328.826L656.663,373.512L693.096,373.512L693.096,336.375L684.031,336.375L684.031,328.826L656.663,328.826Z"/>
                </g>
                <g transform="matrix(0.872551,0,0,0.872551,179.951,178.998)">
                    <path d="M935.183,333.175L942.018,339.507L935.183,339.27L935.183,333.175Z"/>
                    <path d="M935.253,331.266L935.325,331.27L935.396,331.276L935.467,331.286L935.537,331.298L935.607,331.312L935.676,331.329L935.745,331.349L935.813,331.371L935.88,331.396L935.946,331.423L936.011,331.453L936.074,331.485L936.137,331.52L936.198,331.557L936.258,331.596L936.316,331.637L936.373,331.68L936.428,331.726L936.481,331.773L943.316,338.106L943.368,338.155L943.417,338.207L943.465,338.26L943.511,338.315L943.554,338.371L943.595,338.43L943.635,338.489L943.672,338.55L943.706,338.613L943.738,338.676L943.768,338.741L943.796,338.807L943.82,338.874L943.843,338.942L943.863,339.01L943.88,339.08L943.895,339.15L943.907,339.22L943.916,339.291L943.923,339.362L943.927,339.433L943.928,339.504L943.927,339.576L943.923,339.647L943.917,339.718L943.908,339.789L943.896,339.859L943.881,339.929L943.864,339.998L943.844,340.067L943.822,340.135L943.798,340.202L943.77,340.268L943.741,340.333L943.709,340.396L943.674,340.459L943.638,340.52L943.599,340.58L943.557,340.638L943.514,340.695L943.469,340.75L943.421,340.803L943.372,340.855L943.32,340.905L943.267,340.952L943.212,340.998L943.156,341.041L943.098,341.083L943.038,341.122L942.977,341.159L942.915,341.194L942.851,341.226L942.786,341.256L942.72,341.283L942.654,341.308L942.586,341.331L942.517,341.351L942.448,341.368L942.378,341.383L942.308,341.395L942.237,341.405L942.166,341.411L942.095,341.416L942.024,341.417L941.952,341.416L935.117,341.179L935.045,341.176L934.974,341.169L934.903,341.16L934.833,341.148L934.763,341.134L934.693,341.117L934.624,341.097L934.556,341.075L934.489,341.05L934.423,341.023L934.358,340.993L934.294,340.961L934.231,340.926L934.17,340.89L934.11,340.85L934.051,340.809L933.995,340.766L933.939,340.72L933.886,340.673L933.834,340.623L933.785,340.571L933.737,340.518L933.691,340.463L933.647,340.406L933.606,340.348L933.567,340.288L933.53,340.227L933.495,340.164L933.463,340.101L933.433,340.036L933.405,339.969L933.38,339.902L933.358,339.834L933.338,339.766L933.321,339.696L933.306,339.626L933.294,339.556L933.285,339.485L933.278,339.413L933.274,339.342L933.273,339.27L933.273,333.175L933.274,333.103L933.278,333.032L933.285,332.961L933.294,332.89L933.306,332.82L933.321,332.75L933.338,332.68L933.358,332.612L933.38,332.544L933.405,332.477L933.432,332.411L933.462,332.346L933.494,332.282L933.529,332.22L933.565,332.159L933.605,332.099L933.646,332.041L933.689,331.984L933.735,331.929L933.782,331.876L933.832,331.824L933.883,331.775L933.937,331.727L933.992,331.682L934.048,331.638L934.107,331.597L934.166,331.558L934.227,331.521L934.29,331.486L934.354,331.454L934.419,331.424L934.484,331.397L934.551,331.372L934.619,331.35L934.688,331.33L934.757,331.313L934.827,331.298L934.897,331.286L934.968,331.277L935.039,331.27L935.111,331.266L935.182,331.265L935.253,331.266ZM935.183,339.27L942.018,339.507L935.183,333.175L935.183,339.27Z"/>
                </g>
            </g>
            <g transform="matrix(1,0,0,1,-61.1157,-134.169)">
                <g transform="matrix(0.694573,0,0,0.77073,520.504,216.273)">
                    <path d="M656.663,328.826L656.663,373.512L693.096,373.512L693.096,336.375L684.031,336.375L684.031,328.826L656.663,328.826Z" style="fill:rgb(19,238,136);"/>
                    <path d="M684.24,326.672L684.448,326.697L684.652,326.738L684.852,326.794L685.045,326.867L685.231,326.954L685.408,327.055L685.574,327.17L685.728,327.297L685.869,327.436L685.997,327.586L686.109,327.745L686.206,327.913L686.286,328.087L686.349,328.267L686.394,328.451L686.422,328.638L686.431,328.826L686.431,334.212L693.096,334.212L693.305,334.221L693.512,334.245L693.717,334.286L693.916,334.343L694.11,334.415L694.295,334.502L694.472,334.603L694.638,334.718L694.792,334.846L694.934,334.985L695.061,335.134L695.174,335.294L695.27,335.461L695.351,335.635L695.413,335.815L695.459,335.999L695.486,336.186L695.495,336.375L695.495,373.512L695.486,373.7L695.459,373.887L695.413,374.072L695.351,374.252L695.27,374.426L695.174,374.593L695.061,374.752L694.934,374.902L694.792,375.041L694.638,375.168L694.472,375.283L694.295,375.385L694.11,375.472L693.916,375.544L693.717,375.601L693.512,375.642L693.305,375.666L693.096,375.674L656.663,375.674L656.454,375.666L656.246,375.642L656.042,375.601L655.842,375.544L655.649,375.472L655.463,375.385L655.287,375.283L655.121,375.168L654.966,375.041L654.825,374.902L654.698,374.752L654.585,374.593L654.488,374.426L654.408,374.252L654.345,374.072L654.3,373.887L654.273,373.7L654.264,373.512L654.264,328.826L654.273,328.638L654.3,328.451L654.345,328.267L654.408,328.087L654.488,327.913L654.585,327.745L654.698,327.586L654.825,327.436L654.966,327.297L655.121,327.17L655.287,327.055L655.463,326.954L655.649,326.867L655.842,326.794L656.042,326.738L656.246,326.697L656.454,326.672L656.663,326.664L684.031,326.664L684.24,326.672ZM656.663,328.826L656.663,373.512L693.096,373.512L693.096,336.375L684.031,336.375L684.031,328.826L656.663,328.826Z"/>
                </g>
                <g transform="matrix(0.872551,0,0,0.872551,179.951,178.998)">
                    <path d="M935.183,333.175L942.018,339.507L935.183,339.27L935.183,333.175Z"/>
                    <path d="M935.253,331.266L935.325,331.27L935.396,331.276L935.467,331.286L935.537,331.298L935.607,331.312L935.676,331.329L935.745,331.349L935.813,331.371L935.88,331.396L935.946,331.423L936.011,331.453L936.074,331.485L936.137,331.52L936.198,331.557L936.258,331.596L936.316,331.637L936.373,331.68L936.428,331.726L936.481,331.773L943.316,338.106L943.368,338.155L943.417,338.207L943.465,338.26L943.511,338.315L943.554,338.371L943.595,338.43L943.635,338.489L943.672,338.55L943.706,338.613L943.738,338.676L943.768,338.741L943.796,338.807L943.82,338.874L943.843,338.942L943.863,339.01L943.88,339.08L943.895,339.15L943.907,339.22L943.916,339.291L943.923,339.362L943.927,339.433L943.928,339.504L943.927,339.576L943.923,339.647L943.917,339.718L943.908,339.789L943.896,339.859L943.881,339.929L943.864,339.998L943.845,340.067L943.822,340.135L943.798,340.202L943.77,340.268L943.741,340.333L943.709,340.397L943.674,340.459L943.638,340.52L943.599,340.58L943.557,340.638L943.514,340.695L943.469,340.75L943.421,340.803L943.372,340.855L943.32,340.905L943.267,340.952L943.213,340.998L943.156,341.041L943.098,341.083L943.038,341.122L942.977,341.159L942.915,341.194L942.851,341.226L942.786,341.256L942.72,341.283L942.654,341.308L942.586,341.331L942.517,341.351L942.448,341.368L942.378,341.383L942.308,341.395L942.237,341.405L942.166,341.411L942.095,341.416L942.024,341.417L941.952,341.416L935.117,341.179L935.045,341.176L934.974,341.169L934.903,341.16L934.833,341.148L934.763,341.134L934.693,341.117L934.624,341.097L934.556,341.075L934.489,341.05L934.423,341.023L934.358,340.993L934.294,340.961L934.231,340.926L934.17,340.89L934.11,340.85L934.051,340.809L933.995,340.766L933.939,340.72L933.886,340.673L933.834,340.623L933.785,340.571L933.737,340.518L933.691,340.463L933.647,340.406L933.606,340.348L933.567,340.288L933.53,340.227L933.495,340.164L933.463,340.101L933.433,340.036L933.405,339.969L933.381,339.902L933.358,339.834L933.338,339.766L933.321,339.696L933.306,339.626L933.294,339.556L933.285,339.485L933.278,339.413L933.274,339.342L933.273,339.27L933.273,333.175L933.274,333.103L933.278,333.032L933.285,332.961L933.294,332.89L933.306,332.82L933.321,332.75L933.338,332.68L933.358,332.612L933.38,332.544L933.405,332.477L933.432,332.411L933.462,332.346L933.494,332.282L933.529,332.22L933.566,332.159L933.605,332.099L933.646,332.041L933.689,331.984L933.735,331.929L933.783,331.876L933.832,331.824L933.883,331.775L933.937,331.727L933.992,331.682L934.048,331.638L934.107,331.597L934.166,331.558L934.227,331.521L934.29,331.486L934.354,331.454L934.419,331.424L934.485,331.397L934.551,331.372L934.619,331.35L934.688,331.33L934.757,331.313L934.827,331.298L934.897,331.286L934.968,331.277L935.039,331.27L935.111,331.266L935.182,331.265L935.253,331.266ZM935.183,339.27L942.018,339.507L935.183,333.175L935.183,339.27Z"/>
                </g>
            </g>
            <g transform="matrix(1,0,0,1,-66.979,-128.575)">
                <g transform="matrix(0.694573,0,0,0.77073,520.504,216.273)">
                    <path d="M656.663,328.826L656.663,373.512L693.096,373.512L693.096,336.375L684.031,336.375L684.031,328.826L656.663,328.826Z" style="fill:rgb(72,110,237);"/>
                    <path d="M684.24,326.672L684.448,326.697L684.652,326.738L684.852,326.794L685.045,326.867L685.231,326.954L685.408,327.055L685.574,327.17L685.728,327.297L685.869,327.436L685.997,327.586L686.109,327.745L686.206,327.913L686.286,328.087L686.349,328.267L686.394,328.451L686.422,328.638L686.431,328.826L686.431,334.212L693.096,334.212L693.305,334.221L693.512,334.245L693.717,334.286L693.916,334.343L694.11,334.415L694.295,334.502L694.472,334.603L694.638,334.718L694.792,334.846L694.934,334.985L695.061,335.134L695.174,335.294L695.27,335.461L695.351,335.635L695.414,335.815L695.459,335.999L695.486,336.186L695.495,336.375L695.495,373.512L695.486,373.7L695.459,373.887L695.414,374.072L695.351,374.251L695.27,374.426L695.174,374.593L695.061,374.752L694.934,374.902L694.792,375.041L694.638,375.168L694.472,375.283L694.295,375.385L694.11,375.472L693.916,375.544L693.717,375.601L693.512,375.641L693.305,375.666L693.096,375.674L656.663,375.674L656.454,375.666L656.246,375.641L656.042,375.601L655.842,375.544L655.649,375.472L655.463,375.385L655.287,375.283L655.121,375.168L654.966,375.041L654.825,374.902L654.698,374.752L654.585,374.593L654.488,374.426L654.408,374.251L654.345,374.072L654.3,373.887L654.273,373.7L654.264,373.512L654.264,328.826L654.273,328.638L654.3,328.451L654.345,328.267L654.408,328.087L654.488,327.913L654.585,327.745L654.698,327.586L654.825,327.436L654.966,327.297L655.121,327.17L655.287,327.055L655.463,326.954L655.649,326.867L655.842,326.794L656.042,326.738L656.246,326.697L656.454,326.672L656.663,326.664L684.031,326.664L684.24,326.672ZM656.663,328.826L656.663,373.512L693.096,373.512L693.096,336.375L684.031,336.375L684.031,328.826L656.663,328.826Z"/>
                </g>
                <g transform="matrix(0.872551,0,0,0.872551,179.951,178.998)">
                    <path d="M935.183,333.175L942.018,339.507L935.183,339.27L935.183,333.175Z"/>
                    <path d="M935.253,331.266L935.325,331.27L935.396,331.276L935.467,331.286L935.537,331.298L935.607,331.312L935.676,331.329L935.745,331.349L935.813,331.371L935.88,331.396L935.946,331.423L936.011,331.453L936.074,331.485L936.137,331.52L936.198,331.557L936.258,331.596L936.316,331.637L936.373,331.68L936.428,331.726L936.481,331.773L943.316,338.106L943.368,338.155L943.417,338.207L943.465,338.26L943.511,338.315L943.554,338.371L943.595,338.43L943.635,338.489L943.671,338.55L943.706,338.613L943.738,338.676L943.768,338.741L943.796,338.807L943.82,338.874L943.843,338.942L943.863,339.01L943.88,339.08L943.895,339.15L943.907,339.22L943.916,339.291L943.923,339.362L943.927,339.433L943.928,339.504L943.927,339.576L943.923,339.647L943.917,339.718L943.907,339.789L943.896,339.859L943.881,339.929L943.864,339.998L943.844,340.067L943.822,340.135L943.798,340.202L943.77,340.268L943.741,340.333L943.709,340.397L943.674,340.459L943.638,340.52L943.599,340.58L943.557,340.638L943.514,340.695L943.469,340.75L943.421,340.803L943.372,340.855L943.32,340.905L943.267,340.952L943.212,340.998L943.156,341.041L943.098,341.083L943.038,341.122L942.977,341.159L942.915,341.194L942.851,341.226L942.786,341.256L942.72,341.283L942.654,341.308L942.586,341.331L942.517,341.351L942.448,341.368L942.378,341.383L942.308,341.395L942.237,341.405L942.166,341.411L942.095,341.416L942.024,341.417L941.952,341.416L935.117,341.179L935.045,341.176L934.974,341.169L934.903,341.16L934.833,341.148L934.763,341.134L934.693,341.117L934.624,341.097L934.556,341.075L934.489,341.05L934.423,341.023L934.358,340.993L934.294,340.961L934.231,340.926L934.17,340.89L934.11,340.851L934.051,340.809L933.994,340.766L933.939,340.72L933.886,340.673L933.834,340.623L933.785,340.572L933.737,340.518L933.691,340.463L933.647,340.406L933.606,340.348L933.567,340.288L933.53,340.227L933.495,340.164L933.463,340.101L933.433,340.036L933.405,339.969L933.38,339.902L933.358,339.834L933.338,339.766L933.321,339.696L933.306,339.626L933.294,339.556L933.285,339.485L933.278,339.413L933.274,339.342L933.273,339.27L933.273,333.175L933.274,333.103L933.278,333.032L933.285,332.961L933.294,332.89L933.306,332.82L933.321,332.75L933.338,332.68L933.358,332.612L933.38,332.544L933.405,332.477L933.432,332.411L933.462,332.346L933.494,332.282L933.529,332.22L933.565,332.159L933.605,332.099L933.646,332.041L933.689,331.984L933.735,331.929L933.782,331.876L933.832,331.824L933.883,331.775L933.937,331.727L933.992,331.682L934.048,331.638L934.106,331.597L934.166,331.558L934.227,331.521L934.29,331.486L934.354,331.454L934.418,331.424L934.484,331.397L934.551,331.372L934.619,331.35L934.688,331.33L934.757,331.313L934.827,331.298L934.897,331.286L934.968,331.277L935.039,331.27L935.111,331.266L935.182,331.265L935.253,331.266ZM935.183,339.27L942.018,339.507L935.183,333.175L935.183,339.27Z"/>
                </g>
            </g>
            <g transform="matrix(0.796026,0,0,0.837412,386.277,66.5201)">
                <path d="M662.66,341.816L684.031,341.816" style="fill:rgb(139,139,139);fill-opacity:0;stroke:black;stroke-width:2.04px;"/>
            </g>
            <g transform="matrix(0.796026,0,0,0.837412,386.277,65.2742)">
                <path d="M662.66,349.867L684.031,349.867" style="fill:rgb(139,139,139);fill-opacity:0;stroke:black;stroke-width:2.04px;"/>
            </g>
            <g transform="matrix(0.796026,0,0,0.837412,386.277,66.5201)">
                <path d="M662.66,354.943L684.031,354.943" style="fill:rgb(139,139,139);fill-opacity:0;stroke:black;stroke-width:2.04px;"/>
            </g>
            <g transform="matrix(0.796026,0,0,0.837412,386.277,66.5201)">
                <path d="M662.66,362.995L684.031,362.995" style="fill:rgb(139,139,139);fill-opacity:0;stroke:black;stroke-width:2.04px;"/>
            </g>
        </g>
    </g>
</svg>
