<?xml version="1.0" encoding="UTF-8" standalone="no"?>
<!DOCTYPE svg PUBLIC "-//W3C//DTD SVG 1.1//EN" "http://www.w3.org/Graphics/SVG/1.1/DTD/svg11.dtd">
<svg width="100%" height="100%" viewBox="0 0 66 63" version="1.1" xmlns="http://www.w3.org/2000/svg" xmlns:xlink="http://www.w3.org/1999/xlink" xml:space="preserve" style="fill-rule:evenodd;clip-rule:evenodd;stroke-linejoin:round;stroke-miterlimit:1.41421;">
    <g transform="matrix(1,0,0,1,-126,-319)">
        <g transform="matrix(0.860154,0,0,0.868428,-97.2195,112.212)">
            <g id="pencil">
                <g>
                    <g transform="matrix(1,0,0,1,13.2345,51.1302)">
                        <path d="M274.21,230.237L295.433,208.478L303.791,217.036L282.757,238.289L274.21,230.237Z" style="fill:rgb(111,111,111);"/>
                    </g>
                    <g transform="matrix(-1.05151,-1.00598,0.88162,-0.921524,306.359,796.058)">
                        <path d="M249.807,273.325L253.888,280.487L245.725,280.487L249.807,273.325Z" style="fill:rgb(111,111,111);"/>
                    </g>
                    <g transform="matrix(0.646938,0.66935,-0.617746,0.597062,244.85,-41.2786)">
                        <path d="M292.703,183.594C292.703,182.454 291.856,181.536 290.804,181.536C288.388,181.536 284.239,181.536 281.805,181.536C281.294,181.536 280.801,181.757 280.438,182.151C280.074,182.545 279.869,183.079 279.869,183.634C279.869,185.698 279.869,188.541 279.869,188.541L292.703,188.541C292.703,188.541 292.703,185.661 292.703,183.594Z" style="fill:rgb(111,111,111);"/>
                    </g>
                </g>
            </g>
        </g>
    </g>
</svg>
