<?xml version="1.0" encoding="UTF-8" standalone="no"?>
<!DOCTYPE svg PUBLIC "-//W3C//DTD SVG 1.1//EN" "http://www.w3.org/Graphics/SVG/1.1/DTD/svg11.dtd">
<svg width="100%" height="100%" viewBox="0 0 61 65" version="1.1" xmlns="http://www.w3.org/2000/svg" xmlns:xlink="http://www.w3.org/1999/xlink" xml:space="preserve" style="fill-rule:evenodd;clip-rule:evenodd;stroke-linejoin:round;stroke-miterlimit:1.41421;">
    <g transform="matrix(1,0,0,1,-257,-447)">
        <g id="pencil">
            <g transform="matrix(0.860154,0,0,0.868428,38.9727,286.44)">
                <path d="M274.21,230.237L295.433,208.478L303.791,217.036L282.757,238.289L274.21,230.237Z" style="fill:rgb(111,111,111);"/>
            </g>
            <g transform="matrix(-0.90446,-0.873619,0.75833,-0.800277,291.105,933.356)">
                <path d="M249.807,273.325L253.888,280.487L245.725,280.487L249.807,273.325Z" style="fill:rgb(111,111,111);"/>
            </g>
            <g transform="matrix(0.556466,0.581283,-0.531357,0.518505,238.198,206.189)">
                <path d="M292.703,183.594C292.703,182.454 291.856,181.536 290.804,181.536C288.388,181.536 284.239,181.536 281.805,181.536C281.294,181.536 280.801,181.757 280.438,182.151C280.074,182.545 279.869,183.079 279.869,183.634C279.869,185.698 279.869,188.541 279.869,188.541L292.703,188.541C292.703,188.541 292.703,185.661 292.703,183.594Z" style="fill:rgb(111,111,111);"/>
            </g>
            <g transform="matrix(0.876205,-0.0039049,0.00391696,0.87891,32.7251,284.185)">
                <path d="M274.21,230.237L295.433,208.478L303.791,217.036L282.757,238.289L274.21,230.237Z" style="fill:rgb(198,198,198);"/>
            </g>
            <g transform="matrix(-0.90446,-0.873619,0.75833,-0.800277,290.239,932.344)">
                <path d="M249.807,273.325L253.888,280.487L245.725,280.487L249.807,273.325Z" style="fill:rgb(198,198,198);"/>
            </g>
            <g transform="matrix(-0.500696,-0.483623,0.424229,-0.447695,280.694,738.551)">
                <path d="M249.807,273.325L253.888,280.487L245.725,280.487L249.807,273.325Z"/>
            </g>
            <g transform="matrix(0.55948,0.578383,-0.528655,0.52126,235.969,205.498)">
                <path d="M292.703,183.594C292.703,182.454 291.856,181.536 290.804,181.536C288.388,181.536 284.239,181.536 281.805,181.536C281.294,181.536 280.801,181.757 280.438,182.151C280.074,182.545 279.869,183.079 279.869,183.634C279.869,185.698 279.869,188.541 279.869,188.541L292.703,188.541C292.703,188.541 292.703,185.661 292.703,183.594Z" style="fill:rgb(237,101,0);"/>
            </g>
            <g transform="matrix(0.661925,-0.684766,1.27479,1.23227,154.041,386.206)">
                <rect x="12.666" y="87.482" width="26.731" height="2.14" style="fill:rgb(239,255,0);"/>
            </g>
            <g transform="matrix(0.661925,-0.684766,1.1564,1.11782,167.104,398.891)">
                <rect x="12.666" y="87.482" width="26.731" height="2.14" style="fill:rgb(238,215,13);"/>
            </g>
            <g transform="matrix(0.669919,-0.676947,1.04186,1.03105,179.319,408.66)">
                <rect x="12.666" y="87.482" width="26.731" height="2.14" style="fill:rgb(238,190,0);"/>
            </g>
        </g>
    </g>
</svg>
