<svg style="position: absolute; width: 0; height: 0; overflow: hidden;" version="1.1" xmlns="http://www.w3.org/2000/svg" xmlns:xlink="http://www.w3.org/1999/xlink">
<defs>
<symbol id="icon-bulb" viewBox="0 0 32 32">
<title>bulb</title>
<path class="path1" d="M16 0c-6.076 0-11 4.924-11 11 0 4.031 3.688 8.303 5.031 12.055 2.003 5.595 1.781 8.945 5.969 8.945 4.25 0 3.965-3.334 5.969-8.922 1.347-3.76 5.031-8.078 5.031-12.078 0-6.076-4.926-11-11-11zM18.592 27.176l-4.958 0.619c-0.177-0.512-0.367-1.111-0.598-1.893-0.003-0.010-0.007-0.021-0.009-0.031l6.188-0.773c-0.088 0.295-0.182 0.605-0.264 0.883-0.131 0.449-0.248 0.839-0.359 1.195zM12.736 24.908c-0.182-0.602-0.387-1.236-0.615-1.908h7.766c-0.123 0.359-0.246 0.719-0.352 1.059l-6.799 0.849zM16 30c-1.013 0-1.479-0.117-1.997-1.25l4.238-0.531c-0.614 1.654-1.061 1.781-2.241 1.781zM20.672 21h-9.333c-0.498-1.080-1.096-2.16-1.686-3.217-1.305-2.335-2.653-4.75-2.653-6.783 0-4.963 4.037-9 9-9s9 4.037 9 9c0 2.018-1.35 4.446-2.656 6.795-0.584 1.053-1.178 2.131-1.672 3.205zM16 5c0.275 0 0.5 0.224 0.5 0.5s-0.224 0.5-0.5 0.5c-2.757 0-5 2.243-5 5 0 0.276-0.224 0.5-0.5 0.5s-0.5-0.224-0.5-0.5c0-3.309 2.691-6 6-6z"></path>
</symbol>
<symbol id="icon-cube" viewBox="0 0 32 32">
<title>cube</title>
<path class="path1" d="M15.452 3.006l-13.362 5.757 13.375 5.712 13.513-5.725-13.526-5.744zM16 15.194v13.8l12.995-6.169v-13.151l-12.995 5.52zM2.005 22.825l13.039 6.169v-13.8l-13.039-5.52v13.151z"></path>
</symbol>
<symbol id="icon-pig" viewBox="0 0 32 32">
<title>pig</title>
<path class="path1" d="M24.674 21.909c0 0 3.33-2.278 3.33-6.771 0-6.688-7.088-9.161-10.899-9.095-3.812 0.067-4.948 1.070-4.948 1.070s-1.297-0.943-2.672-1.733c-1.052-0.41-1.296-0.469-2.027-0.234-0.585 0-0.217 0.974 0.018 1.325 0.233 0.351 1.366 2.29 1.366 2.29s-2.378 2.449-2.554 4.059c0-0.029-1.12-0.009-1.734-0.009s-0.556 0.669-0.556 0.669l0.017 4.714c0 0-0.038 0.669 0.519 0.669 0.556 0 1.738 0.013 1.738 0.013s1.663 2.415 2.717 2.854c0 0.029-0.911 2.503-0.911 2.503s-0.439 0.761 0.351 1.054c0.79 0.292 2.851 1.157 3.729 1.421s1.003-0.334 1.003-0.334l0.869-1.877 5.685 0.009 0.869 1.935c0 0 0.167 0.898 1.337 0.401 1.171-0.497 2.449-1.087 3.415-1.584 0.965-0.497 0.33-1.426 0.33-1.426l-0.992-1.923zM9.322 13.764c-0.533 0-0.965-0.433-0.965-0.966s0.432-0.965 0.965-0.965 0.966 0.432 0.966 0.965-0.433 0.966-0.966 0.966zM22.925 10.756c-0.308 0.365-0.509 0.096-0.757 0.023 0 0-1.051-0.975-2.595-1.43-1.599-0.47-3.282-0.243-3.282-0.243-0.248-0.073-0.549-0.081-0.551-0.464 0.013-0.473 0.587-0.477 0.58-0.493 0 0 1.894-0.175 3.479 0.291 1.559 0.458 2.75 1.454 2.75 1.454s0.637 0.439 0.376 0.862z"></path>
</symbol>
<symbol id="icon-question" viewBox="0 0 17 28">
<title>question</title>
<path class="path1" d="M11 19.625v3.75c0 0.344-0.281 0.625-0.625 0.625h-3.75c-0.344 0-0.625-0.281-0.625-0.625v-3.75c0-0.344 0.281-0.625 0.625-0.625h3.75c0.344 0 0.625 0.281 0.625 0.625zM15.937 10.25c0 2.969-2.016 4.109-3.5 4.937-0.922 0.531-1.5 1.609-1.5 2.063v0c0 0.344-0.266 0.75-0.625 0.75h-3.75c-0.344 0-0.562-0.531-0.562-0.875v-0.703c0-1.891 1.875-3.516 3.25-4.141 1.203-0.547 1.703-1.062 1.703-2.063 0-0.875-1.141-1.656-2.406-1.656-0.703 0-1.344 0.219-1.687 0.453-0.375 0.266-0.75 0.641-1.672 1.797-0.125 0.156-0.313 0.25-0.484 0.25-0.141 0-0.266-0.047-0.391-0.125l-2.562-1.953c-0.266-0.203-0.328-0.547-0.156-0.828 1.687-2.797 4.062-4.156 7.25-4.156 3.344 0 7.094 2.672 7.094 6.25z"></path>
</symbol>
<symbol id="icon-male" viewBox="0 0 16 28">
<title>male</title>
<path class="path1" d="M16 11v6.5c0 0.828-0.672 1.5-1.5 1.5s-1.5-0.672-1.5-1.5v-5.5h-1v14.25c0 0.969-0.781 1.75-1.75 1.75s-1.75-0.781-1.75-1.75v-7.25h-1v7.25c0 0.969-0.781 1.75-1.75 1.75s-1.75-0.781-1.75-1.75v-14.25h-1v5.5c0 0.828-0.672 1.5-1.5 1.5s-1.5-0.672-1.5-1.5v-6.5c0-1.656 1.344-3 3-3h10c1.656 0 3 1.344 3 3zM11.5 4c0 1.937-1.563 3.5-3.5 3.5s-3.5-1.563-3.5-3.5 1.563-3.5 3.5-3.5 3.5 1.563 3.5 3.5z"></path>
</symbol>
<symbol id="icon-cube2" viewBox="0 0 26 28">
<title>cube2</title>
<path class="path1" d="M14 25.453l10-5.453v-9.938l-10 3.641v11.75zM13 11.937l10.906-3.969-10.906-3.969-10.906 3.969zM26 8v12c0 0.734-0.406 1.406-1.047 1.75l-11 6c-0.297 0.172-0.625 0.25-0.953 0.25s-0.656-0.078-0.953-0.25l-11-6c-0.641-0.344-1.047-1.016-1.047-1.75v-12c0-0.844 0.531-1.594 1.313-1.875l11-4c0.219-0.078 0.453-0.125 0.688-0.125s0.469 0.047 0.688 0.125l11 4c0.781 0.281 1.313 1.031 1.313 1.875z"></path>
</symbol>
</defs>
</svg>
