<svg style="position: absolute; width: 0; height: 0; overflow: hidden;" version="1.1" xmlns="http://www.w3.org/2000/svg" xmlns:xlink="http://www.w3.org/1999/xlink">
<defs>
<symbol id="icon-pig" viewBox="0 0 32 32">
<title>pig</title>
<path class="path1" d="M24.674 21.909c0 0 3.33-2.278 3.33-6.771 0-6.688-7.088-9.161-10.899-9.095-3.812 0.067-4.948 1.070-4.948 1.070s-1.297-0.943-2.672-1.733c-1.052-0.41-1.296-0.469-2.027-0.234-0.585 0-0.217 0.974 0.018 1.325 0.233 0.351 1.366 2.29 1.366 2.29s-2.378 2.449-2.554 4.059c0-0.029-1.12-0.009-1.734-0.009s-0.556 0.669-0.556 0.669l0.017 4.714c0 0-0.038 0.669 0.519 0.669 0.556 0 1.738 0.013 1.738 0.013s1.663 2.415 2.717 2.854c0 0.029-0.911 2.503-0.911 2.503s-0.439 0.761 0.351 1.054c0.79 0.292 2.851 1.157 3.729 1.421s1.003-0.334 1.003-0.334l0.869-1.877 5.685 0.009 0.869 1.935c0 0 0.167 0.898 1.337 0.401 1.171-0.497 2.449-1.087 3.415-1.584 0.965-0.497 0.33-1.426 0.33-1.426l-0.992-1.923zM9.322 13.764c-0.533 0-0.965-0.433-0.965-0.966s0.432-0.965 0.965-0.965 0.966 0.432 0.966 0.965-0.433 0.966-0.966 0.966zM22.925 10.756c-0.308 0.365-0.509 0.096-0.757 0.023 0 0-1.051-0.975-2.595-1.43-1.599-0.47-3.282-0.243-3.282-0.243-0.248-0.073-0.549-0.081-0.551-0.464 0.013-0.473 0.587-0.477 0.58-0.493 0 0 1.894-0.175 3.479 0.291 1.559 0.458 2.75 1.454 2.75 1.454s0.637 0.439 0.376 0.862z"></path>
</symbol>
<symbol id="icon-male" viewBox="0 0 16 28">
<title>male</title>
<path class="path1" d="M16 11v6.5c0 0.828-0.672 1.5-1.5 1.5s-1.5-0.672-1.5-1.5v-5.5h-1v14.25c0 0.969-0.781 1.75-1.75 1.75s-1.75-0.781-1.75-1.75v-7.25h-1v7.25c0 0.969-0.781 1.75-1.75 1.75s-1.75-0.781-1.75-1.75v-14.25h-1v5.5c0 0.828-0.672 1.5-1.5 1.5s-1.5-0.672-1.5-1.5v-6.5c0-1.656 1.344-3 3-3h10c1.656 0 3 1.344 3 3zM11.5 4c0 1.937-1.563 3.5-3.5 3.5s-3.5-1.563-3.5-3.5 1.563-3.5 3.5-3.5 3.5 1.563 3.5 3.5z"></path>
</symbol>
<symbol id="icon-cube" viewBox="0 0 26 28">
<title>cube</title>
<path class="path1" d="M14 25.453l10-5.453v-9.938l-10 3.641v11.75zM13 11.937l10.906-3.969-10.906-3.969-10.906 3.969zM26 8v12c0 0.734-0.406 1.406-1.047 1.75l-11 6c-0.297 0.172-0.625 0.25-0.953 0.25s-0.656-0.078-0.953-0.25l-11-6c-0.641-0.344-1.047-1.016-1.047-1.75v-12c0-0.844 0.531-1.594 1.313-1.875l11-4c0.219-0.078 0.453-0.125 0.688-0.125s0.469 0.047 0.688 0.125l11 4c0.781 0.281 1.313 1.031 1.313 1.875z"></path>
</symbol>
</defs>
</svg>
