<svg style="position: absolute; width: 0; height: 0; overflow: hidden;" version="1.1" xmlns="http://www.w3.org/2000/svg" xmlns:xlink="http://www.w3.org/1999/xlink">
<defs>
<symbol id="icon-b-draw" viewBox="0 0 32 32">
<title>b-draw</title>
<path class="path1" fill="#5d9dff" d="M28.55 14.29c0 7.688-6.292 13.92-14.054 13.92s-14.054-6.232-14.054-13.92c0-7.688 6.292-13.92 14.054-13.92s14.054 6.232 14.054 13.92z"></path>
<path class="path2" fill="#000" d="M7.528 16.726l10.604-10.872 4.176 4.276-10.51 10.62-4.27-4.024z"></path>
<path class="path3" fill="#000" d="M6.132 22.48l1.012-5.35 4.288 4.104-5.3 1.246z"></path>
<path class="path4" fill="#000" d="M24.294 8.078c0.294-0.284 0.302-0.752 0.018-1.046-0.796-0.826-2.322-2.402-3.118-3.228-0.284-0.294-0.754-0.302-1.048-0.018-0.64 0.62-1.63 1.576-1.63 1.576l4.148 4.292c0 0 0.99-0.956 1.63-1.576z"></path>
</symbol>
<symbol id="icon-b-mail" viewBox="0 0 32 32">
<title>b-mail</title>
<path class="path1" fill="#5d9dff" d="M28.204 14.29c0 7.688-6.292 13.92-14.054 13.92s-14.054-6.232-14.054-13.92c0-7.688 6.292-13.92 14.054-13.92s14.054 6.232 14.054 13.92z"></path>
<path class="path2" fill="#dedaca" d="M23.302 8.77c0-0.792-0.642-1.434-1.436-1.434-3.418 0-12.012 0-15.432 0-0.792 0-1.436 0.642-1.436 1.434 0 2.668 0 8.356 0 11.022 0 0.792 0.644 1.436 1.436 1.436 3.42 0 12.014 0 15.432 0 0.794 0 1.436-0.644 1.436-1.436 0-2.666 0-8.354 0-11.022z"></path>
<path class="path3" fill="#ff2600" stroke="#a09e92" stroke-width="0.6" stroke-miterlimit="1.5" stroke-linecap="round" stroke-linejoin="round" d="M17.406 12.186l-11.284 9.056"></path>
<path class="path4" fill="#a09e92" d="M14 14.526l8.412-7.174v13.89l-8.412-6.716z"></path>
<path class="path5" fill="none" stroke="#a6322c" stroke-width="3" stroke-miterlimit="1.5" stroke-linecap="round" stroke-linejoin="bevel" d="M22.666 7.924v12.64"></path>
<path class="path6" fill="#da3b32" d="M22.754 6.428l0.1 0.008 0.098 0.016 0.098 0.024 0.096 0.028 0.094 0.036 0.092 0.040 0.088 0.048 0.084 0.054 0.082 0.058 0.076 0.064 0.074 0.070 0.068 0.074 0.062 0.078 0.058 0.082 0.052 0.086 0.046 0.088 0.038 0.092 0.034 0.096 0.028 0.096 0.020 0.098 0.014 0.1 0.008 0.1v0.1l-0.004 0.1-0.014 0.098-0.018 0.1-0.026 0.096-0.032 0.096-0.038 0.092-0.046 0.090-0.050 0.086-0.056 0.084-0.062 0.078-0.066 0.076-0.072 0.070-0.076 0.064-0.080 0.060-8.078 5.63-0.044 0.026-0.048 0.026-0.046 0.024-0.048 0.024-0.046 0.022-0.048 0.022-0.048 0.020-0.050 0.020-0.096 0.036-0.1 0.032-0.1 0.028-0.1 0.024-0.1 0.020-0.052 0.008-0.050 0.008-0.052 0.008-0.050 0.004-0.052 0.006-0.050 0.004-0.102 0.004h-0.154l-0.052-0.002-0.050-0.004-0.052-0.004-0.050-0.004-0.052-0.006-0.1-0.016-0.052-0.008-0.050-0.010-0.15-0.036-0.1-0.028-0.048-0.016-0.050-0.018-0.048-0.016-0.050-0.020-0.096-0.040-0.048-0.022-0.046-0.022-0.048-0.024-0.046-0.024-0.092-0.052-0.046-0.028-0.044-0.028-0.126-0.086-5.148-3.784 0.070 9.702-0.004 0.1-0.008 0.1-0.016 0.098-0.022 0.098-0.030 0.096-0.036 0.094-0.040 0.090-0.048 0.090-0.054 0.084-0.058 0.082-0.064 0.076-0.070 0.072-0.074 0.068-0.078 0.064-0.082 0.056-0.086 0.052-0.090 0.046-0.092 0.040-0.094 0.034-0.096 0.026-0.098 0.022-0.1 0.014-0.1 0.006-0.1 0.002-0.1-0.006-0.1-0.014-0.098-0.018-0.096-0.026-0.096-0.032-0.092-0.038-0.090-0.046-0.086-0.050-0.084-0.056-0.078-0.062-0.076-0.066-0.070-0.072-0.064-0.076-0.060-0.080-0.056-0.084-0.048-0.088-0.044-0.090-0.036-0.094-0.030-0.096-0.024-0.096-0.018-0.1-0.010-0.1-0.004-0.1-0.088-12.114v-0.050l0.004-0.062 0.004-0.064 0.010-0.076 0.018-0.11 0.030-0.12 0.036-0.118 0.046-0.114 0.052-0.112 0.060-0.106 0.068-0.102 0.074-0.098 0.080-0.094 0.088-0.086 0.094-0.082 0.088-0.068 0.064-0.042 0.052-0.034 0.056-0.032 0.054-0.028 0.058-0.028 0.058-0.026 0.058-0.024 0.070-0.026 0.108-0.032 0.12-0.028 0.122-0.020 0.124-0.012 0.122-0.002 0.122 0.006 0.122 0.014 0.12 0.022 0.12 0.030 0.118 0.040 0.114 0.046 0.1 0.050 0.066 0.038 0.054 0.032 0.054 0.034 0.040 0.030 6.902 5.070 7.792-5.436 0.088-0.048 0.092-0.044 0.092-0.036 0.096-0.030 0.098-0.024 0.098-0.018 0.1-0.010 0.1-0.004 0.1 0.002z"></path>
</symbol>
<symbol id="icon-b-share" viewBox="0 0 32 32">
<title>b-share</title>
<path class="path1" fill="#5d9dff" d="M28.242 14.29c0 7.688-6.292 13.92-14.054 13.92s-14.054-6.232-14.054-13.92c0-7.688 6.292-13.92 14.054-13.92s14.054 6.232 14.054 13.92z"></path>
<path class="path2" fill="#00002b" d="M10.036 14.172c0 1.048-0.818 1.898-1.828 1.898s-1.828-0.85-1.828-1.898c0-1.048 0.818-1.898 1.828-1.898s1.828 0.85 1.828 1.898z"></path>
<path class="path3" fill="#00002b" d="M19.154 7.602c0 1.048-0.818 1.898-1.828 1.898s-1.828-0.85-1.828-1.898c0-1.048 0.818-1.898 1.828-1.898s1.828 0.85 1.828 1.898z"></path>
<path class="path4" fill="#00002b" d="M19.574 20.016c0 1.048-0.818 1.898-1.828 1.898s-1.828-0.85-1.828-1.898c0-1.048 0.818-1.898 1.828-1.898s1.828 0.85 1.828 1.898z"></path>
<path class="path5" fill="#00002b" d="M21.996 14.172c0 1.048-0.818 1.898-1.828 1.898s-1.828-0.85-1.828-1.898c0-1.048 0.818-1.898 1.828-1.898s1.828 0.85 1.828 1.898z"></path>
<path class="path6" fill="none" stroke="#000" stroke-width="0.6" stroke-miterlimit="1.5" stroke-linecap="round" stroke-linejoin="round" d="M9.224 14.172h9.932"></path>
<path class="path7" fill="none" stroke="#000" stroke-width="0.6" stroke-miterlimit="1.5" stroke-linecap="round" stroke-linejoin="round" d="M8.688 14.172l8.638-6.57"></path>
<path class="path8" fill="none" stroke="#000" stroke-width="0.6" stroke-miterlimit="1.5" stroke-linecap="round" stroke-linejoin="round" d="M8.212 14.172l9.114 5.844"></path>
</symbol>
<symbol id="icon-b-text" viewBox="0 0 32 32">
<title>b-text</title>
<path class="path1" fill="#5d9dff" d="M31.814 15.73c0 7.688-6.877 13.92-15.36 13.92s-15.36-6.232-15.36-13.92c0-7.688 6.877-13.92 15.36-13.92s15.36 6.232 15.36 13.92z"></path>
<path class="path2" fill="#f4a6a1" d="M22.088 19.974c0 1.032-0.834 1.868-1.864 1.87-3.386 0.006-10.2 0.018-10.2 0.018s-1.914 1.57-3.072 2.522c-0.156 0.128-0.372 0.154-0.554 0.066-0.182-0.086-0.296-0.272-0.294-0.474 0.004-0.458 0.010-0.978 0.014-1.388 0.004-0.198-0.074-0.388-0.212-0.528-0.14-0.142-0.328-0.22-0.526-0.22 0 0 0 0 0 0-0.116 0-0.226-0.046-0.308-0.128-0.080-0.080-0.126-0.19-0.126-0.306 0-1.662 0-7.652 0-10.014 0-0.256 0.102-0.5 0.282-0.682 0.182-0.18 0.428-0.282 0.684-0.282 3.006 0 12.186 0 15.204 0 0.536 0 0.972 0.436 0.972 0.972 0 1.898 0 6.122 0 8.574z"></path>
<path class="path3" fill="#5d9dff" d="M26.026 6.404c0.064 0.002 0.13 0.006 0.194 0.014 0.158 0.018 0.316 0.054 0.466 0.106 0.27 0.096 0.516 0.248 0.716 0.44 0.188 0.18 0.334 0.398 0.428 0.634 0.048 0.124 0.082 0.252 0.1 0.384 0.008 0.060 0.012 0.118 0.014 0.178 0.040 3.048 0 6.096 0 9.144-0.002 0.11-0.016 0.218-0.044 0.324-0.086 0.308-0.288 0.584-0.566 0.774-0.080 0.052-0.164 0.1-0.254 0.138-0.058 0.026-0.074 0.030-0.136 0.052l-0.018 0.006 0.010 1v0.044c-0.004 0.070-0.010 0.14-0.024 0.21-0.030 0.152-0.086 0.3-0.168 0.436-0.080 0.136-0.186 0.258-0.308 0.364-0.112 0.094-0.24 0.174-0.378 0.236-0.376 0.168-0.818 0.19-1.212 0.060-0.144-0.048-0.278-0.114-0.4-0.196-0.044-0.030-0.086-0.062-0.126-0.096l-2.316-1.966-8.46-0.016c-0.094-0.004-0.188-0.008-0.28-0.020-0.23-0.026-0.454-0.080-0.668-0.158-0.374-0.136-0.716-0.346-0.994-0.614-0.262-0.252-0.468-0.554-0.598-0.882-0.072-0.178-0.12-0.364-0.146-0.552-0.012-0.086-0.018-0.172-0.022-0.258-0.038-2.662-0.002-5.324-0.002-7.986 0.004-0.19 0.036-0.38 0.1-0.56 0.098-0.268 0.262-0.512 0.478-0.71 0.196-0.178 0.43-0.318 0.686-0.408 0.15-0.054 0.308-0.090 0.468-0.108 0.064-0.008 0.128-0.012 0.194-0.014 4.422-0.050 8.844-0.050 13.266 0zM12.808 7.402c-0.1 0-0.202 0.016-0.298 0.046-0.246 0.082-0.444 0.264-0.534 0.49-0.032 0.082-0.048 0.166-0.050 0.252-0.036 2.646-0.002 5.29-0.002 7.936 0.004 0.168 0.030 0.336 0.090 0.496 0.074 0.202 0.194 0.388 0.35 0.546 0.184 0.184 0.416 0.328 0.672 0.414 0.132 0.046 0.27 0.074 0.41 0.088 0.056 0.004 0.114 0.006 0.172 0.008l8.814 0.016c0.878 0.746 1.742 1.506 2.634 2.236 0.014 0.010 0.028 0.020 0.042 0.030 0.058 0.034 0.12 0.058 0.188 0.068 0.044 0.008 0.090 0.008 0.136 0.004 0.156-0.018 0.294-0.108 0.364-0.236 0.032-0.056 0.046-0.118 0.050-0.182 0.004-0.47-0.028-0.94-0.014-1.408 0.004-0.060 0.016-0.118 0.038-0.174 0.060-0.146 0.188-0.264 0.346-0.32 0.052-0.018 0.106-0.030 0.16-0.034 0.026-0.004 0.054-0.004 0.080-0.004 0.022-0.002 0.022-0.002 0.042-0.004 0.040-0.006 0.080-0.016 0.116-0.032 0.1-0.044 0.178-0.122 0.216-0.216 0.014-0.036 0.020-0.074 0.024-0.11 0.082-3.042 0.042-6.086 0-9.128-0.004-0.086-0.020-0.17-0.052-0.25-0.084-0.218-0.274-0.396-0.508-0.478-0.096-0.034-0.194-0.050-0.294-0.054-4.398-0.050-8.794 0-13.192 0z"></path>
<path class="path4" fill="#f4c1a1" d="M11.926 16.106c0 0.856 0.758 1.552 1.694 1.552 2.972 0.006 8.814 0.016 8.814 0.016s1.608 1.366 2.62 2.226c0.138 0.118 0.34 0.148 0.512 0.078s0.282-0.226 0.282-0.398c-0.006-0.458-0.012-0.98-0.016-1.366-0.002-0.148 0.062-0.29 0.176-0.394 0.112-0.106 0.268-0.164 0.428-0.164 0 0 0 0 0.002 0 0.11 0 0.216-0.040 0.294-0.112 0.080-0.072 0.124-0.17 0.124-0.27 0-1.502 0-7.010 0-9.088 0-0.214-0.094-0.418-0.258-0.568s-0.388-0.236-0.62-0.236c-2.644 0-10.516 0-13.168 0-0.234 0-0.46 0.086-0.626 0.238-0.164 0.152-0.258 0.356-0.258 0.572 0 1.706 0 5.698 0 7.914z"></path>
</symbol>
<symbol id="icon-bulb" viewBox="0 0 32 32">
<title>bulb</title>
<path class="path1" fill="#000" d="M15.931 2.102l0.13 0.002 0.389 0.015 0.384 0.030 0.251 0.025 0.126 0.015 0.126 0.017 0.123 0.017 0.126 0.020 0.123 0.020 0.121 0.022 0.123 0.022 0.241 0.049 0.118 0.027 0.121 0.027 0.118 0.030 0.116 0.030 0.118 0.032 0.347 0.103 0.113 0.037 0.226 0.079 0.111 0.039 0.111 0.042 0.111 0.044 0.217 0.089 0.108 0.047 0.106 0.047 0.108 0.049 0.103 0.052 0.106 0.052 0.103 0.052 0.101 0.054 0.103 0.054 0.101 0.057 0.098 0.057 0.197 0.118 0.098 0.062 0.096 0.062 0.094 0.064 0.096 0.064 0.091 0.064 0.094 0.066 0.091 0.066 0.091 0.069 0.089 0.069 0.089 0.071 0.172 0.143 0.086 0.074 0.084 0.074 0.081 0.076 0.084 0.076 0.081 0.076 0.158 0.158 0.076 0.079 0.076 0.081 0.076 0.084 0.074 0.081 0.074 0.084 0.071 0.084 0.069 0.086 0.071 0.086 0.066 0.086 0.133 0.177 0.066 0.091 0.062 0.089 0.064 0.091 0.059 0.091 0.062 0.094 0.057 0.094 0.059 0.094 0.054 0.094 0.057 0.096 0.052 0.096 0.054 0.098 0.049 0.096 0.052 0.098 0.094 0.197 0.047 0.101 0.089 0.202 0.042 0.101 0.039 0.101 0.079 0.207 0.037 0.103 0.034 0.106 0.034 0.103 0.064 0.212 0.030 0.106 0.027 0.106 0.027 0.108 0.027 0.106 0.025 0.108 0.044 0.217 0.039 0.217 0.017 0.111 0.017 0.108 0.015 0.111 0.037 0.332 0.010 0.111 0.007 0.111 0.005 0.113 0.007 0.111 0.002 0.113 0.002 0.111 0.002 0.145-0.002 0.145v0.143l-0.005 0.143-0.010 0.281-0.007 0.14-0.010 0.138-0.010 0.135-0.012 0.135-0.015 0.135-0.030 0.266-0.017 0.13-0.020 0.13-0.020 0.128-0.044 0.256-0.025 0.126-0.025 0.123-0.054 0.246-0.027 0.121-0.030 0.118-0.064 0.236-0.032 0.116-0.034 0.116-0.034 0.113-0.034 0.111-0.037 0.113-0.037 0.108-0.079 0.217-0.039 0.106-0.042 0.106-0.084 0.207-0.042 0.101-0.044 0.101-0.044 0.098-0.044 0.096-0.094 0.192-0.094 0.187-0.049 0.091-0.047 0.091-0.049 0.089-0.049 0.086-0.049 0.089-0.052 0.084-0.049 0.084-0.052 0.084-0.049 0.081-0.052 0.081-0.052 0.079-0.052 0.076-0.052 0.079-0.103 0.148-0.054 0.074-0.103 0.143-0.052 0.069-0.054 0.069-0.103 0.133-0.054 0.064-0.103 0.128-0.052 0.059-0.052 0.062-0.052 0.059-0.052 0.057-0.054 0.062-0.098 0.106-0.101 0.106-0.098 0.101-0.194 0.19-0.094 0.089-0.091 0.084-0.022 0.017v5.081h-12.352v-5.179l-0.027-0.025-0.081-0.086-0.086-0.086-0.086-0.094-0.089-0.096-0.091-0.101-0.094-0.106-0.094-0.108-0.096-0.113-0.096-0.118-0.098-0.121-0.098-0.126-0.148-0.197-0.049-0.066-0.049-0.069-0.052-0.071-0.049-0.069-0.049-0.074-0.049-0.071-0.052-0.074-0.148-0.229-0.098-0.158-0.098-0.162-0.098-0.167-0.047-0.084-0.049-0.086-0.047-0.086-0.094-0.177-0.094-0.182-0.044-0.091-0.047-0.094-0.044-0.096-0.044-0.094-0.044-0.098-0.042-0.096-0.042-0.101-0.042-0.098-0.042-0.101-0.042-0.103-0.039-0.101-0.039-0.106-0.037-0.103-0.039-0.108-0.037-0.106-0.037-0.108-0.034-0.111-0.034-0.108-0.032-0.113-0.034-0.111-0.032-0.116-0.030-0.113-0.059-0.231-0.054-0.236-0.074-0.362-0.022-0.123-0.020-0.123-0.039-0.251-0.017-0.126-0.044-0.384-0.010-0.13-0.012-0.13-0.022-0.399-0.005-0.135-0.002-0.138-0.002-0.103 0.002-0.108 0.005-0.212 0.007-0.108 0.015-0.212 0.012-0.103 0.012-0.106 0.015-0.106 0.015-0.103 0.034-0.207 0.022-0.103 0.020-0.103 0.025-0.103 0.049-0.202 0.030-0.101 0.027-0.101 0.030-0.101 0.032-0.101 0.103-0.295 0.037-0.098 0.037-0.096 0.039-0.098 0.126-0.288 0.044-0.094 0.14-0.281 0.049-0.094 0.049-0.091 0.052-0.094 0.054-0.091 0.052-0.089 0.057-0.091 0.054-0.089 0.057-0.089 0.059-0.089 0.059-0.086 0.059-0.089 0.123-0.172 0.128-0.167 0.066-0.086 0.066-0.081 0.066-0.084 0.207-0.244 0.071-0.079 0.074-0.079 0.071-0.079 0.15-0.155 0.153-0.153 0.079-0.076 0.079-0.074 0.081-0.074 0.079-0.071 0.084-0.071 0.081-0.071 0.084-0.071 0.084-0.069 0.172-0.138 0.089-0.066 0.086-0.066 0.091-0.066 0.089-0.064 0.091-0.064 0.091-0.062 0.094-0.062 0.091-0.062 0.096-0.062 0.094-0.059 0.096-0.057 0.096-0.059 0.098-0.057 0.197-0.108 0.101-0.054 0.303-0.155 0.103-0.049 0.106-0.049 0.103-0.047 0.106-0.044 0.106-0.047 0.106-0.044 0.217-0.084 0.108-0.039 0.222-0.079 0.111-0.037 0.113-0.034 0.111-0.034 0.113-0.034 0.116-0.032 0.113-0.032 0.116-0.030 0.231-0.054 0.236-0.049 0.236-0.044 0.241-0.039 0.241-0.034 0.121-0.012 0.123-0.015 0.123-0.010 0.123-0.012 0.249-0.015 0.249-0.010 0.266-0.005h0.13l0.13 0.002zM15.682 4.315l-0.318 0.007-0.194 0.010-0.192 0.015-0.192 0.020-0.094 0.012-0.096 0.012-0.094 0.012-0.187 0.030-0.091 0.017-0.094 0.017-0.182 0.039-0.182 0.044-0.089 0.022-0.091 0.025-0.177 0.049-0.086 0.027-0.089 0.030-0.086 0.027-0.086 0.032-0.086 0.030-0.086 0.032-0.084 0.032-0.251 0.103-0.244 0.111-0.162 0.079-0.079 0.039-0.158 0.084-0.076 0.042-0.229 0.133-0.074 0.044-0.076 0.047-0.071 0.047-0.074 0.049-0.071 0.047-0.071 0.049-0.071 0.052-0.071 0.049-0.207 0.155-0.199 0.162-0.128 0.108-0.128 0.113-0.062 0.057-0.062 0.059-0.062 0.057-0.118 0.118-0.057 0.062-0.059 0.059-0.057 0.062-0.054 0.062-0.057 0.062-0.054 0.062-0.052 0.062-0.054 0.064-0.052 0.064-0.049 0.062-0.052 0.064-0.049 0.066-0.047 0.064-0.047 0.066-0.047 0.064-0.047 0.066-0.089 0.133-0.084 0.133-0.042 0.069-0.039 0.066-0.079 0.138-0.074 0.138-0.103 0.207-0.064 0.138-0.030 0.071-0.030 0.069-0.030 0.071-0.027 0.071-0.027 0.069-0.049 0.143-0.022 0.069-0.025 0.071-0.079 0.286-0.017 0.071-0.044 0.214-0.025 0.143-0.020 0.143-0.010 0.069-0.007 0.071-0.015 0.214-0.002 0.071v0.069l-0.002 0.071 0.002 0.071 0.002 0.108 0.002 0.111 0.005 0.108 0.007 0.108 0.007 0.106 0.007 0.108 0.010 0.106 0.012 0.103 0.010 0.103 0.015 0.103 0.012 0.103 0.015 0.101 0.034 0.202 0.017 0.098 0.039 0.197 0.020 0.096 0.044 0.192 0.025 0.094 0.022 0.094 0.025 0.094 0.081 0.273 0.027 0.089 0.059 0.177 0.059 0.172 0.032 0.086 0.096 0.251 0.103 0.244 0.034 0.079 0.037 0.079 0.034 0.079 0.111 0.229 0.039 0.074 0.037 0.074 0.039 0.071 0.037 0.074 0.039 0.071 0.158 0.276 0.042 0.066 0.039 0.066 0.042 0.064 0.039 0.064 0.042 0.064 0.039 0.064 0.084 0.123 0.039 0.059 0.084 0.118 0.039 0.057 0.084 0.113 0.039 0.054 0.162 0.212 0.081 0.098 0.079 0.096 0.079 0.094 0.076 0.091 0.076 0.086 0.074 0.081 0.074 0.079 0.071 0.076 0.135 0.14 0.064 0.064 0.064 0.062 0.116 0.111 0.054 0.049 0.052 0.047 0.047 0.042 0.047 0.039 0.039 0.037 0.037 0.032 0.064 0.052 0.047 0.037 0.039 0.030v3.948h7.921v-3.948l0.010-0.005 0.030-0.020 0.049-0.030 0.064-0.044 0.039-0.027 0.042-0.032 0.044-0.032 0.049-0.037 0.054-0.039 0.054-0.044 0.059-0.047 0.059-0.052 0.064-0.052 0.066-0.059 0.069-0.059 0.069-0.064 0.074-0.069 0.074-0.071 0.074-0.074 0.076-0.079 0.199-0.212 0.079-0.094 0.042-0.047 0.039-0.047 0.084-0.098 0.039-0.052 0.084-0.103 0.042-0.054 0.039-0.054 0.084-0.113 0.039-0.057 0.084-0.118 0.039-0.059 0.042-0.062 0.039-0.064 0.042-0.062 0.039-0.064 0.118-0.199 0.118-0.207 0.037-0.071 0.039-0.074 0.037-0.071 0.037-0.076 0.037-0.074 0.034-0.076 0.037-0.079 0.034-0.076 0.034-0.081 0.034-0.079 0.034-0.081 0.096-0.251 0.032-0.086 0.030-0.086 0.032-0.086 0.027-0.089 0.030-0.091 0.054-0.182 0.027-0.094 0.025-0.094 0.049-0.192 0.022-0.096 0.044-0.197 0.039-0.202 0.034-0.207 0.017-0.106 0.030-0.212 0.012-0.108 0.012-0.111 0.012-0.108 0.010-0.113 0.007-0.111 0.007-0.113 0.007-0.116 0.005-0.116 0.005-0.118 0.002-0.118v-0.118l0.002-0.121-0.002-0.121-0.002-0.086-0.005-0.167-0.005-0.084-0.022-0.251-0.010-0.081-0.010-0.084-0.010-0.081-0.012-0.084-0.012-0.081-0.030-0.162-0.017-0.079-0.034-0.162-0.039-0.158-0.066-0.236-0.025-0.079-0.025-0.076-0.027-0.076-0.027-0.079-0.027-0.076-0.030-0.074-0.030-0.076-0.032-0.076-0.064-0.148-0.069-0.148-0.037-0.071-0.037-0.074-0.037-0.071-0.039-0.071-0.039-0.069-0.039-0.071-0.042-0.069-0.042-0.071-0.042-0.066-0.044-0.069-0.047-0.069-0.044-0.066-0.047-0.066-0.049-0.066-0.049-0.064-0.049-0.066-0.049-0.064-0.103-0.128-0.162-0.185-0.057-0.062-0.113-0.118-0.118-0.118-0.059-0.057-0.123-0.113-0.062-0.054-0.064-0.057-0.064-0.054-0.066-0.052-0.066-0.054-0.066-0.052-0.066-0.049-0.069-0.052-0.069-0.049-0.143-0.098-0.143-0.094-0.074-0.044-0.074-0.047-0.076-0.044-0.074-0.042-0.076-0.044-0.079-0.042-0.079-0.039-0.079-0.042-0.079-0.039-0.081-0.037-0.081-0.039-0.081-0.037-0.251-0.103-0.086-0.034-0.172-0.064-0.086-0.030-0.177-0.059-0.091-0.027-0.089-0.027-0.091-0.027-0.094-0.025-0.091-0.025-0.187-0.044-0.096-0.022-0.096-0.020-0.096-0.017-0.096-0.020-0.098-0.017-0.295-0.044-0.305-0.037-0.101-0.010-0.313-0.022-0.209-0.010-0.322-0.007h-0.108z"></path>
<path class="path2" fill="#00010b" d="M20.33 26.695h-9.086c0 0 0 0.042 0 0.108 0 0.5 0.406 0.903 0.903 0.903 1.772 0 5.679 0 7.372 0 0.448 0 0.81-0.362 0.81-0.81 0-0.118 0-0.202 0-0.202z"></path>
<path class="path3" fill="#000" d="M21.438 26.905v0.042l-0.002 0.049-0.002 0.047-0.010 0.098-0.015 0.094-0.030 0.14-0.012 0.047-0.015 0.044-0.015 0.047-0.015 0.044-0.017 0.044-0.017 0.042-0.020 0.044-0.039 0.084-0.022 0.039-0.022 0.042-0.074 0.118-0.081 0.111-0.030 0.034-0.030 0.037-0.030 0.034-0.032 0.032-0.032 0.034-0.032 0.032-0.034 0.030-0.034 0.032-0.034 0.030-0.037 0.027-0.034 0.030-0.039 0.027-0.037 0.025-0.039 0.027-0.039 0.025-0.039 0.022-0.039 0.025-0.042 0.020-0.042 0.022-0.042 0.020-0.042 0.017-0.044 0.020-0.044 0.015-0.044 0.017-0.044 0.015-0.047 0.012-0.044 0.012-0.047 0.012-0.094 0.020-0.049 0.007-0.047 0.007-0.049 0.005-0.047 0.002-0.049 0.005h-0.049l-0.042 0.002-7.584-0.010-0.049-0.007-0.052-0.007-0.049-0.007-0.098-0.020-0.049-0.012-0.047-0.012-0.049-0.015-0.047-0.015-0.047-0.017-0.044-0.017-0.047-0.020-0.089-0.039-0.044-0.022-0.042-0.022-0.044-0.025-0.042-0.025-0.039-0.025-0.042-0.027-0.039-0.027-0.039-0.030-0.037-0.030-0.039-0.030-0.034-0.032-0.037-0.030-0.034-0.034-0.034-0.032-0.034-0.034-0.032-0.037-0.032-0.034-0.032-0.037-0.030-0.037-0.059-0.079-0.054-0.079-0.074-0.126-0.044-0.089-0.059-0.133-0.034-0.094-0.015-0.047-0.015-0.049-0.012-0.047-0.012-0.049-0.020-0.098-0.015-0.098-0.010-0.103-0.005-0.049v-0.052l-0.002-0.044v-1.223h11.301v1.317zM11.244 26.695v0.108l0.002 0.025v0.022l0.002 0.022v0.025l0.002 0.022 0.005 0.022 0.002 0.022 0.015 0.066 0.005 0.020 0.015 0.044 0.007 0.020 0.007 0.022 0.007 0.020 0.049 0.098 0.012 0.017 0.010 0.020 0.037 0.052 0.015 0.017 0.012 0.017 0.030 0.034 0.044 0.044 0.017 0.015 0.015 0.015 0.034 0.030 0.069 0.049 0.020 0.012 0.020 0.010 0.017 0.010 0.020 0.012 0.020 0.010 0.020 0.007 0.020 0.010 0.022 0.007 0.039 0.015 0.044 0.015 0.020 0.005 0.066 0.015 0.022 0.002 0.022 0.005 0.025 0.002 0.022 0.002h0.022l0.025 0.002 7.54-0.012 0.039-0.010 0.017-0.005 0.039-0.010 0.020-0.007 0.017-0.005 0.020-0.007 0.017-0.007 0.020-0.007 0.017-0.010 0.017-0.007 0.069-0.039 0.015-0.010 0.017-0.012 0.015-0.012 0.015-0.010 0.030-0.025 0.015-0.015 0.015-0.012 0.042-0.042 0.049-0.059 0.010-0.017 0.012-0.015 0.020-0.034 0.012-0.015 0.007-0.017 0.010-0.017 0.010-0.020 0.015-0.034 0.007-0.020 0.007-0.017 0.007-0.020 0.005-0.017 0.007-0.020 0.010-0.039 0.002-0.020 0.005-0.020 0.007-0.059 0.002-0.022 0.002-0.020v-0.244h-9.086z"></path>
</symbol>
<symbol id="icon-geometry" viewBox="0 0 32 32">
<title>geometry</title>
<path class="path1" d="M15.328 9.514l-0.037 16.817-0.217 0.17-15.628-3.835-0.074-16.569 0.197-0.158 15.759 3.574zM0.918 21.506l12.898 3.166 0.032-13.979-12.992-2.946 0.062 13.76z"></path>
<path class="path2" fill="none" stroke="#000" stroke-width="1.4769" stroke-miterlimit="1.5" stroke-linecap="round" stroke-linejoin="bevel" d="M0.128 6.356l10.779-5.585 14.112 2.762-10.715 6.562"></path>
<path class="path3" fill="none" stroke="#000" stroke-width="1.4769" stroke-miterlimit="1.5" stroke-linecap="round" stroke-linejoin="bevel" d="M24.615 3.761l-0.276 15.692-9.137 6.033"></path>
</symbol>
<symbol id="icon-pig" viewBox="0 0 32 32">
<title>pig</title>
<path class="path1" d="M22.778 18.349c0 0 2.72-1.86 2.72-5.532 0-5.463-5.79-7.484-8.905-7.43-3.113 0.055-4.043 0.875-4.043 0.875s-1.058-0.77-2.182-1.417c-0.86-0.335-1.058-0.384-1.655-0.192-0.478 0-0.177 0.796 0.015 1.084 0.19 0.286 1.116 1.871 1.116 1.871s-1.943 2.001-2.086 3.315c0-0.023-0.915-0.006-1.417-0.006s-0.454 0.546-0.454 0.546l0.013 3.851c0 0-0.030 0.548 0.425 0.548s1.421 0.011 1.421 0.011c0 0 1.359 1.973 2.219 2.332 0 0.023-0.745 2.044-0.745 2.044s-0.358 0.623 0.288 0.862c0.644 0.239 2.33 0.945 3.046 1.161s0.819-0.273 0.819-0.273l0.71-1.534 4.644 0.009 0.71 1.581c0 0 0.137 0.734 1.092 0.326 0.956-0.405 2.001-0.887 2.79-1.293 0.787-0.407 0.269-1.165 0.269-1.165l-0.811-1.572zM10.236 11.695c-0.435 0-0.789-0.354-0.789-0.789s0.354-0.789 0.789-0.789c0.435 0 0.789 0.354 0.789 0.789s-0.354 0.789-0.789 0.789zM21.348 9.237c-0.252 0.299-0.416 0.079-0.619 0.019 0 0-0.858-0.798-2.118-1.169-1.308-0.384-2.682-0.198-2.682-0.198-0.203-0.060-0.45-0.066-0.45-0.38 0.011-0.386 0.478-0.388 0.474-0.401 0 0 1.547-0.143 2.842 0.237 1.274 0.373 2.246 1.188 2.246 1.188s0.521 0.358 0.307 0.704z"></path>
</symbol>
<symbol id="icon-Square-icon" viewBox="0 0 32 32">
<title>Square-icon</title>
<path class="path1" fill="#000" d="M30.125 15.33c0-8.201-6.647-14.848-14.848-14.848-0.094 0-0.19 0-0.286 0-8.201 0-14.848 6.647-14.848 14.848 0 0 0 0 0 0 0 8.201 6.647 14.848 14.848 14.848 0.096 0 0.192 0 0.286 0 8.201 0 14.848-6.647 14.848-14.848 0 0 0 0 0 0z"></path>
<path class="path2" fill="#000" d="M-3.77-3.394h37.809v37.449h-37.809v-37.449z"></path>
<path class="path3" fill="#fff" d="M22.854 14.867h-3.194c-0.107 0.213-0.171 0.448-0.181 0.7v0.028c0 0.002 0 0.004 0 0.006v3.249c0 0.866-0.708 1.566-1.581 1.566h-5.53c-0.875 0-1.581-0.7-1.581-1.566v-7.042c0-0.864 0.706-1.566 1.581-1.566h10.266c0.002 0 0.002 0.002 0.004 0.002s0.002-0.002 0.004-0.002c0.119 0 0.237-0.017 0.348-0.041h0.002c0.026-0.113 0.041-0.226 0.041-0.346v-1.961c0-0.119-0.017-0.237-0.043-0.35-0.113-0.026-0.228-0.041-0.35-0.043h-12.642c-0.002 0-0.004 0.002-0.006 0.002-1.525 0.002-2.761 1.227-2.761 2.737v10.174c0 1.513 1.237 2.737 2.761 2.739 0.002 0 0.004 0 0.006 0s0.002 0 0.004 0h10.261c0 0 0.002 0 0.004 0s0.004 0 0.006 0c1.523-0.002 2.758-1.227 2.758-2.739v0-2.372h0.002v-2.477c-0.011-0.252-0.075-0.486-0.181-0.7z"></path>
</symbol>
</defs>
</svg>
