<svg style="position: absolute; width: 0; height: 0; overflow: hidden;" version="1.1" xmlns="http://www.w3.org/2000/svg" xmlns:xlink="http://www.w3.org/1999/xlink">
<defs>
<symbol id="icon-bulb" viewBox="0 0 25 32">
<title>bulb</title>
<path class="path1" fill="#000" d="M12.239 2.102l0.13 0.002 0.389 0.015 0.384 0.030 0.251 0.025 0.126 0.015 0.126 0.017 0.123 0.017 0.126 0.020 0.123 0.020 0.121 0.022 0.123 0.022 0.241 0.049 0.118 0.027 0.121 0.027 0.118 0.030 0.116 0.030 0.118 0.032 0.347 0.103 0.113 0.037 0.226 0.079 0.111 0.039 0.111 0.042 0.111 0.044 0.217 0.089 0.108 0.047 0.106 0.047 0.108 0.049 0.103 0.052 0.106 0.052 0.103 0.052 0.101 0.054 0.103 0.054 0.101 0.057 0.098 0.057 0.197 0.118 0.098 0.062 0.096 0.062 0.094 0.064 0.096 0.064 0.091 0.064 0.094 0.066 0.091 0.066 0.091 0.069 0.089 0.069 0.089 0.071 0.172 0.143 0.086 0.074 0.084 0.074 0.081 0.076 0.084 0.076 0.081 0.076 0.158 0.158 0.076 0.079 0.076 0.081 0.076 0.084 0.074 0.081 0.074 0.084 0.071 0.084 0.069 0.086 0.071 0.086 0.066 0.086 0.133 0.177 0.066 0.091 0.062 0.089 0.064 0.091 0.059 0.091 0.062 0.094 0.057 0.094 0.059 0.094 0.054 0.094 0.057 0.096 0.052 0.096 0.054 0.098 0.049 0.096 0.052 0.098 0.094 0.197 0.047 0.101 0.089 0.202 0.042 0.101 0.039 0.101 0.079 0.207 0.037 0.103 0.034 0.106 0.034 0.103 0.064 0.212 0.030 0.106 0.027 0.106 0.027 0.108 0.027 0.106 0.025 0.108 0.044 0.217 0.039 0.217 0.017 0.111 0.017 0.108 0.015 0.111 0.037 0.332 0.010 0.111 0.007 0.111 0.005 0.113 0.007 0.111 0.002 0.113 0.002 0.111 0.002 0.145-0.002 0.145v0.143l-0.005 0.143-0.010 0.281-0.007 0.14-0.010 0.138-0.010 0.135-0.012 0.135-0.015 0.135-0.030 0.266-0.017 0.13-0.020 0.13-0.020 0.128-0.044 0.256-0.025 0.126-0.025 0.123-0.054 0.246-0.027 0.121-0.030 0.118-0.064 0.236-0.032 0.116-0.034 0.116-0.034 0.113-0.034 0.111-0.037 0.113-0.037 0.108-0.079 0.217-0.039 0.106-0.042 0.106-0.084 0.207-0.042 0.101-0.044 0.101-0.044 0.098-0.044 0.096-0.094 0.192-0.094 0.187-0.049 0.091-0.047 0.091-0.049 0.089-0.049 0.086-0.049 0.089-0.052 0.084-0.049 0.084-0.052 0.084-0.049 0.081-0.052 0.081-0.052 0.079-0.052 0.076-0.052 0.079-0.103 0.148-0.054 0.074-0.103 0.143-0.052 0.069-0.054 0.069-0.103 0.133-0.054 0.064-0.103 0.128-0.052 0.059-0.052 0.062-0.052 0.059-0.052 0.057-0.054 0.062-0.098 0.106-0.101 0.106-0.098 0.101-0.194 0.19-0.094 0.089-0.091 0.084-0.022 0.017v5.081h-12.352v-5.179l-0.027-0.025-0.081-0.086-0.086-0.086-0.086-0.094-0.089-0.096-0.091-0.101-0.094-0.106-0.094-0.108-0.096-0.113-0.096-0.118-0.098-0.121-0.098-0.126-0.148-0.197-0.049-0.066-0.049-0.069-0.052-0.071-0.049-0.069-0.049-0.074-0.049-0.071-0.052-0.074-0.148-0.229-0.098-0.158-0.098-0.162-0.098-0.167-0.047-0.084-0.049-0.086-0.047-0.086-0.094-0.177-0.094-0.182-0.044-0.091-0.047-0.094-0.044-0.096-0.044-0.094-0.044-0.098-0.042-0.096-0.042-0.101-0.042-0.098-0.042-0.101-0.042-0.103-0.039-0.101-0.039-0.106-0.037-0.103-0.039-0.108-0.037-0.106-0.037-0.108-0.034-0.111-0.034-0.108-0.032-0.113-0.034-0.111-0.032-0.116-0.030-0.113-0.059-0.231-0.054-0.236-0.074-0.362-0.022-0.123-0.020-0.123-0.039-0.251-0.017-0.126-0.044-0.384-0.010-0.13-0.012-0.13-0.022-0.399-0.005-0.135-0.002-0.138-0.002-0.103 0.002-0.108 0.005-0.212 0.007-0.108 0.015-0.212 0.012-0.103 0.012-0.106 0.015-0.106 0.015-0.103 0.034-0.207 0.022-0.103 0.020-0.103 0.025-0.103 0.049-0.202 0.030-0.101 0.027-0.101 0.030-0.101 0.032-0.101 0.103-0.295 0.037-0.098 0.037-0.096 0.039-0.098 0.126-0.288 0.044-0.094 0.14-0.281 0.049-0.094 0.049-0.091 0.052-0.094 0.054-0.091 0.052-0.089 0.057-0.091 0.054-0.089 0.057-0.089 0.059-0.089 0.059-0.086 0.059-0.089 0.123-0.172 0.128-0.167 0.066-0.086 0.066-0.081 0.066-0.084 0.207-0.244 0.071-0.079 0.074-0.079 0.071-0.079 0.15-0.155 0.153-0.153 0.079-0.076 0.079-0.074 0.081-0.074 0.079-0.071 0.084-0.071 0.081-0.071 0.084-0.071 0.084-0.069 0.172-0.138 0.089-0.066 0.086-0.066 0.091-0.066 0.089-0.064 0.091-0.064 0.091-0.062 0.094-0.062 0.091-0.062 0.096-0.062 0.094-0.059 0.096-0.057 0.096-0.059 0.098-0.057 0.197-0.108 0.101-0.054 0.303-0.155 0.103-0.049 0.106-0.049 0.103-0.047 0.106-0.044 0.106-0.047 0.106-0.044 0.217-0.084 0.108-0.039 0.222-0.079 0.111-0.037 0.113-0.034 0.111-0.034 0.113-0.034 0.116-0.032 0.113-0.032 0.116-0.030 0.231-0.054 0.236-0.049 0.236-0.044 0.241-0.039 0.241-0.034 0.121-0.012 0.123-0.015 0.123-0.010 0.123-0.012 0.249-0.015 0.249-0.010 0.266-0.005h0.13l0.13 0.002zM11.99 4.315l-0.318 0.007-0.194 0.010-0.192 0.015-0.192 0.020-0.094 0.012-0.096 0.012-0.094 0.012-0.187 0.030-0.091 0.017-0.094 0.017-0.182 0.039-0.182 0.044-0.089 0.022-0.091 0.025-0.177 0.049-0.086 0.027-0.089 0.030-0.086 0.027-0.086 0.032-0.086 0.030-0.086 0.032-0.084 0.032-0.251 0.103-0.244 0.111-0.162 0.079-0.079 0.039-0.158 0.084-0.076 0.042-0.229 0.133-0.074 0.044-0.076 0.047-0.071 0.047-0.074 0.049-0.071 0.047-0.071 0.049-0.071 0.052-0.071 0.049-0.207 0.155-0.199 0.162-0.128 0.108-0.128 0.113-0.062 0.057-0.062 0.059-0.062 0.057-0.118 0.118-0.057 0.062-0.059 0.059-0.057 0.062-0.054 0.062-0.057 0.062-0.054 0.062-0.052 0.062-0.054 0.064-0.052 0.064-0.049 0.062-0.052 0.064-0.049 0.066-0.047 0.064-0.047 0.066-0.047 0.064-0.047 0.066-0.089 0.133-0.084 0.133-0.042 0.069-0.039 0.066-0.079 0.138-0.074 0.138-0.103 0.207-0.064 0.138-0.030 0.071-0.030 0.069-0.030 0.071-0.027 0.071-0.027 0.069-0.049 0.143-0.022 0.069-0.025 0.071-0.079 0.286-0.017 0.071-0.044 0.214-0.025 0.143-0.020 0.143-0.010 0.069-0.007 0.071-0.015 0.214-0.002 0.071v0.069l-0.002 0.071 0.002 0.071 0.002 0.108 0.002 0.111 0.005 0.108 0.007 0.108 0.007 0.106 0.007 0.108 0.010 0.106 0.012 0.103 0.010 0.103 0.015 0.103 0.012 0.103 0.015 0.101 0.034 0.202 0.017 0.098 0.039 0.197 0.020 0.096 0.044 0.192 0.025 0.094 0.022 0.094 0.025 0.094 0.081 0.273 0.027 0.089 0.059 0.177 0.059 0.172 0.032 0.086 0.096 0.251 0.103 0.244 0.034 0.079 0.037 0.079 0.034 0.079 0.111 0.229 0.039 0.074 0.037 0.074 0.039 0.071 0.037 0.074 0.039 0.071 0.158 0.276 0.042 0.066 0.039 0.066 0.042 0.064 0.039 0.064 0.042 0.064 0.039 0.064 0.084 0.123 0.039 0.059 0.084 0.118 0.039 0.057 0.084 0.113 0.039 0.054 0.162 0.212 0.081 0.098 0.079 0.096 0.079 0.094 0.076 0.091 0.076 0.086 0.074 0.081 0.074 0.079 0.071 0.076 0.135 0.14 0.064 0.064 0.064 0.062 0.116 0.111 0.054 0.049 0.052 0.047 0.047 0.042 0.047 0.039 0.039 0.037 0.037 0.032 0.064 0.052 0.047 0.037 0.039 0.030v3.948h7.921v-3.948l0.010-0.005 0.030-0.020 0.049-0.030 0.064-0.044 0.039-0.027 0.042-0.032 0.044-0.032 0.049-0.037 0.054-0.039 0.054-0.044 0.059-0.047 0.059-0.052 0.064-0.052 0.066-0.059 0.069-0.059 0.069-0.064 0.074-0.069 0.074-0.071 0.074-0.074 0.076-0.079 0.199-0.212 0.079-0.094 0.042-0.047 0.039-0.047 0.084-0.098 0.039-0.052 0.084-0.103 0.042-0.054 0.039-0.054 0.084-0.113 0.039-0.057 0.084-0.118 0.039-0.059 0.042-0.062 0.039-0.064 0.042-0.062 0.039-0.064 0.118-0.199 0.118-0.207 0.037-0.071 0.039-0.074 0.037-0.071 0.037-0.076 0.037-0.074 0.034-0.076 0.037-0.079 0.034-0.076 0.034-0.081 0.034-0.079 0.034-0.081 0.096-0.251 0.032-0.086 0.030-0.086 0.032-0.086 0.027-0.089 0.030-0.091 0.054-0.182 0.027-0.094 0.025-0.094 0.049-0.192 0.022-0.096 0.044-0.197 0.039-0.202 0.034-0.207 0.017-0.106 0.030-0.212 0.012-0.108 0.012-0.111 0.012-0.108 0.010-0.113 0.007-0.111 0.007-0.113 0.007-0.116 0.005-0.116 0.005-0.118 0.002-0.118v-0.118l0.002-0.121-0.002-0.121-0.002-0.086-0.005-0.167-0.005-0.084-0.022-0.251-0.010-0.081-0.010-0.084-0.010-0.081-0.012-0.084-0.012-0.081-0.030-0.162-0.017-0.079-0.034-0.162-0.039-0.158-0.066-0.236-0.025-0.079-0.025-0.076-0.027-0.076-0.027-0.079-0.027-0.076-0.030-0.074-0.030-0.076-0.032-0.076-0.064-0.148-0.069-0.148-0.037-0.071-0.037-0.074-0.037-0.071-0.039-0.071-0.039-0.069-0.039-0.071-0.042-0.069-0.042-0.071-0.042-0.066-0.044-0.069-0.047-0.069-0.044-0.066-0.047-0.066-0.049-0.066-0.049-0.064-0.049-0.066-0.049-0.064-0.103-0.128-0.162-0.185-0.057-0.062-0.113-0.118-0.118-0.118-0.059-0.057-0.123-0.113-0.062-0.054-0.064-0.057-0.064-0.054-0.066-0.052-0.066-0.054-0.066-0.052-0.066-0.049-0.069-0.052-0.069-0.049-0.143-0.098-0.143-0.094-0.074-0.044-0.074-0.047-0.076-0.044-0.074-0.042-0.076-0.044-0.079-0.042-0.079-0.039-0.079-0.042-0.079-0.039-0.081-0.037-0.081-0.039-0.081-0.037-0.251-0.103-0.086-0.034-0.172-0.064-0.086-0.030-0.177-0.059-0.091-0.027-0.089-0.027-0.091-0.027-0.094-0.025-0.091-0.025-0.187-0.044-0.096-0.022-0.096-0.020-0.096-0.017-0.096-0.020-0.098-0.017-0.295-0.044-0.305-0.037-0.101-0.010-0.313-0.022-0.209-0.010-0.322-0.007h-0.108z"></path>
<path class="path2" fill="#00010b" d="M16.638 26.695h-9.086c0 0 0 0.042 0 0.108 0 0.5 0.406 0.903 0.903 0.903 1.772 0 5.679 0 7.372 0 0.448 0 0.81-0.362 0.81-0.81 0-0.118 0-0.202 0-0.202z"></path>
<path class="path3" fill="#000" d="M17.745 26.905v0.042l-0.002 0.049-0.002 0.047-0.010 0.098-0.015 0.094-0.030 0.14-0.012 0.047-0.015 0.044-0.015 0.047-0.015 0.044-0.017 0.044-0.017 0.042-0.020 0.044-0.039 0.084-0.022 0.039-0.022 0.042-0.074 0.118-0.081 0.111-0.030 0.034-0.030 0.037-0.030 0.034-0.032 0.032-0.032 0.034-0.032 0.032-0.034 0.030-0.034 0.032-0.034 0.030-0.037 0.027-0.034 0.030-0.039 0.027-0.037 0.025-0.039 0.027-0.039 0.025-0.039 0.022-0.039 0.025-0.042 0.020-0.042 0.022-0.042 0.020-0.042 0.017-0.044 0.020-0.044 0.015-0.044 0.017-0.044 0.015-0.047 0.012-0.044 0.012-0.047 0.012-0.094 0.020-0.049 0.007-0.047 0.007-0.049 0.005-0.047 0.002-0.049 0.005h-0.049l-0.042 0.002-7.584-0.010-0.049-0.007-0.052-0.007-0.049-0.007-0.098-0.020-0.049-0.012-0.047-0.012-0.049-0.015-0.047-0.015-0.047-0.017-0.044-0.017-0.047-0.020-0.089-0.039-0.044-0.022-0.042-0.022-0.044-0.025-0.042-0.025-0.039-0.025-0.042-0.027-0.039-0.027-0.039-0.030-0.037-0.030-0.039-0.030-0.034-0.032-0.037-0.030-0.034-0.034-0.034-0.032-0.034-0.034-0.032-0.037-0.032-0.034-0.032-0.037-0.030-0.037-0.059-0.079-0.054-0.079-0.074-0.126-0.044-0.089-0.059-0.133-0.034-0.094-0.015-0.047-0.015-0.049-0.012-0.047-0.012-0.049-0.020-0.098-0.015-0.098-0.010-0.103-0.005-0.049v-0.052l-0.002-0.044v-1.223h11.301v1.317zM7.552 26.695v0.108l0.002 0.025v0.022l0.002 0.022v0.025l0.002 0.022 0.005 0.022 0.002 0.022 0.015 0.066 0.005 0.020 0.015 0.044 0.007 0.020 0.007 0.022 0.007 0.020 0.049 0.098 0.012 0.017 0.010 0.020 0.037 0.052 0.015 0.017 0.012 0.017 0.030 0.034 0.044 0.044 0.017 0.015 0.015 0.015 0.034 0.030 0.069 0.049 0.020 0.012 0.020 0.010 0.017 0.010 0.020 0.012 0.020 0.010 0.020 0.007 0.020 0.010 0.022 0.007 0.039 0.015 0.044 0.015 0.020 0.005 0.066 0.015 0.022 0.002 0.022 0.005 0.025 0.002 0.022 0.002h0.022l0.025 0.002 7.54-0.012 0.039-0.010 0.017-0.005 0.039-0.010 0.020-0.007 0.017-0.005 0.020-0.007 0.017-0.007 0.020-0.007 0.017-0.010 0.017-0.007 0.069-0.039 0.015-0.010 0.017-0.012 0.015-0.012 0.015-0.010 0.030-0.025 0.015-0.015 0.015-0.012 0.042-0.042 0.049-0.059 0.010-0.017 0.012-0.015 0.020-0.034 0.012-0.015 0.007-0.017 0.010-0.017 0.010-0.020 0.015-0.034 0.007-0.020 0.007-0.017 0.007-0.020 0.005-0.017 0.007-0.020 0.010-0.039 0.002-0.020 0.005-0.020 0.007-0.059 0.002-0.022 0.002-0.020v-0.244h-9.086z"></path>
</symbol>
<symbol id="icon-b-share" viewBox="0 0 32 32">
<title>b-share</title>
<path class="path1" fill="#5d9dff" d="M28.242 14.29c0 7.688-6.292 13.92-14.054 13.92s-14.054-6.232-14.054-13.92c0-7.688 6.292-13.92 14.054-13.92s14.054 6.232 14.054 13.92z"></path>
<path class="path2" fill="#00002b" d="M10.036 14.172c0 1.048-0.818 1.898-1.828 1.898s-1.828-0.85-1.828-1.898c0-1.048 0.818-1.898 1.828-1.898s1.828 0.85 1.828 1.898z"></path>
<path class="path3" fill="#00002b" d="M19.154 7.602c0 1.048-0.818 1.898-1.828 1.898s-1.828-0.85-1.828-1.898c0-1.048 0.818-1.898 1.828-1.898s1.828 0.85 1.828 1.898z"></path>
<path class="path4" fill="#00002b" d="M19.574 20.016c0 1.048-0.818 1.898-1.828 1.898s-1.828-0.85-1.828-1.898c0-1.048 0.818-1.898 1.828-1.898s1.828 0.85 1.828 1.898z"></path>
<path class="path5" fill="#00002b" d="M21.996 14.172c0 1.048-0.818 1.898-1.828 1.898s-1.828-0.85-1.828-1.898c0-1.048 0.818-1.898 1.828-1.898s1.828 0.85 1.828 1.898z"></path>
<path class="path6" fill="none" stroke="#000" stroke-width="0.6" stroke-miterlimit="1.5" stroke-linecap="round" stroke-linejoin="round" d="M9.224 14.172h9.932"></path>
<path class="path7" fill="none" stroke="#000" stroke-width="0.6" stroke-miterlimit="1.5" stroke-linecap="round" stroke-linejoin="round" d="M8.688 14.172l8.638-6.57"></path>
<path class="path8" fill="none" stroke="#000" stroke-width="0.6" stroke-miterlimit="1.5" stroke-linecap="round" stroke-linejoin="round" d="M8.212 14.172l9.114 5.844"></path>
</symbol>
<symbol id="icon-geometry" viewBox="0 0 32 32">
<title>geometry</title>
<path class="path1" d="M16.35 8.652l-0.034 15.606-0.217 0.17-14.508-3.559-0.069-15.377 0.194-0.155 14.634 3.316zM3.062 19.71l11.781 2.89 0.027-12.768-11.865-2.688 0.057 12.566z"></path>
<path class="path2" fill="none" stroke="#000" stroke-width="1.4769" stroke-miterlimit="1.5" stroke-linecap="round" stroke-linejoin="bevel" d="M2.338 5.871l9.846-5.1 12.889 2.523-9.787 5.991"></path>
<path class="path3" fill="none" stroke="#000" stroke-width="1.4769" stroke-miterlimit="1.5" stroke-linecap="round" stroke-linejoin="bevel" d="M24.704 3.503l-0.251 14.331-8.345 5.509"></path>
</symbol>
<symbol id="icon-b-draw" viewBox="0 0 32 32">
<title>b-draw</title>
<path class="path1" fill="#5d9dff" d="M28.55 14.29c0 7.688-6.292 13.92-14.054 13.92s-14.054-6.232-14.054-13.92c0-7.688 6.292-13.92 14.054-13.92s14.054 6.232 14.054 13.92z"></path>
<path class="path2" fill="#000" d="M7.528 16.726l10.604-10.872 4.176 4.276-10.51 10.62-4.27-4.024z"></path>
<path class="path3" fill="#000" d="M6.132 22.48l1.012-5.35 4.288 4.104-5.3 1.246z"></path>
<path class="path4" fill="#000" d="M24.294 8.078c0.294-0.284 0.302-0.752 0.018-1.046-0.796-0.826-2.322-2.402-3.118-3.228-0.284-0.294-0.754-0.302-1.048-0.018-0.64 0.62-1.63 1.576-1.63 1.576l4.148 4.292c0 0 0.99-0.956 1.63-1.576z"></path>
</symbol>
<symbol id="icon-pig" viewBox="0 0 32 32">
<title>pig</title>
<path class="path1" d="M24.674 21.909c0 0 3.33-2.278 3.33-6.771 0-6.688-7.088-9.161-10.899-9.095-3.812 0.067-4.948 1.070-4.948 1.070s-1.297-0.943-2.672-1.733c-1.052-0.41-1.296-0.469-2.027-0.234-0.585 0-0.217 0.974 0.018 1.325 0.233 0.351 1.366 2.29 1.366 2.29s-2.378 2.449-2.554 4.059c0-0.029-1.12-0.009-1.734-0.009s-0.556 0.669-0.556 0.669l0.017 4.714c0 0-0.038 0.669 0.519 0.669 0.556 0 1.738 0.013 1.738 0.013s1.663 2.415 2.717 2.854c0 0.029-0.911 2.503-0.911 2.503s-0.439 0.761 0.351 1.054c0.79 0.292 2.851 1.157 3.729 1.421s1.003-0.334 1.003-0.334l0.869-1.877 5.685 0.009 0.869 1.935c0 0 0.167 0.898 1.337 0.401 1.171-0.497 2.449-1.087 3.415-1.584 0.965-0.497 0.33-1.426 0.33-1.426l-0.992-1.923zM9.322 13.764c-0.533 0-0.965-0.433-0.965-0.966s0.432-0.965 0.965-0.965 0.966 0.432 0.966 0.965-0.433 0.966-0.966 0.966zM22.925 10.756c-0.308 0.365-0.509 0.096-0.757 0.023 0 0-1.051-0.975-2.595-1.43-1.599-0.47-3.282-0.243-3.282-0.243-0.248-0.073-0.549-0.081-0.551-0.464 0.013-0.473 0.587-0.477 0.58-0.493 0 0 1.894-0.175 3.479 0.291 1.559 0.458 2.75 1.454 2.75 1.454s0.637 0.439 0.376 0.862z"></path>
</symbol>
</defs>
</svg>
